<?xml version="1.0" encoding="UTF-8"?>
<svg width="1600" height="1000" viewBox="-300 0 1600 1000"
     xmlns="http://www.w3.org/2000/svg">

  <!-- Transparent canvas -->
  <rect x="-300" y="0" width="1600" height="1000" fill="none"/>

  <defs>
    <!-- Honeycomb cell (stroke = 14) -->
    <g id="hexcell">
      <path d="M50,0 25,43.30127 -25,43.30127 -50,0 -25,-43.30127 25,-43.30127Z"
            fill="none" stroke="#000" stroke-width="14" stroke-linejoin="miter"/>
    </g>

    <!-- Honeycomb pattern (centered/nudged as tuned) -->
    <pattern id="honeycomb" patternUnits="userSpaceOnUse"
             x="404.8" y="490.111" width="150" height="86.60254"
             patternTransform="scale(1.056)">
      <use href="#hexcell" x="0"   y="43.30127"/>
      <use href="#hexcell" x="150" y="43.30127"/>
      <use href="#hexcell" x="75"  y="0"/>
      <use href="#hexcell" x="225" y="0"/>
    </pattern>

    <!-- Hex badge path (shifted right +4 px) -->
    <path id="hexPath" d="M -246,520 L 204,47 L 804,47 L 1254,520 L 804,993 L 204,993 Z"/>
  </defs>

  <!-- Honeycomb clipped to hex -->
  <clipPath id="hexClip">
    <use href="#hexPath"/>
  </clipPath>
  <g clip-path="url(#hexClip)">
    <rect x="-500" y="-300" width="2000" height="1600" fill="url(#honeycomb)"/>
  </g>

  <!-- ===== T (GRAY FILL over honeycomb, black outline 15) ===== -->
  <path d="M 140 140 H 860 V 230 H 590 V 520 H 410 V 230 H 140 Z"
        fill="#7f7f7f" stroke="#000" stroke-width="15" stroke-linejoin="miter"/>

  <!-- ===== O (two “C” ring sections; hole+slit punched out) ===== -->
  <path d="
    M 320 560
    L 680 560
    L 760 640
    L 760 820
    L 680 900
    L 320 900
    L 240 820
    L 240 640
    Z

    M 370 610
    L 370 850
    L 630 850
    L 630 610
    Z

    M 495 560
    L 505 560
    L 505 900
    L 495 900
    Z"
    fill="#7f7f7f" stroke="#000" stroke-width="15" stroke-linejoin="miter" fill-rule="evenodd"/>

  <!-- Outer hex frame (stroke = 20) on top -->
  <use href="#hexPath" fill="none" stroke="#000" stroke-width="20"/>

</svg>
