<?xml version="1.0" encoding="UTF-8"?>
<svg width="1000" height="1000" viewBox="0 0 1000 1000" xmlns="http://www.w3.org/2000/svg">
  <!-- Transparent background -->
  <rect x="0" y="0" width="1000" height="1000" fill="none"/>

  <!-- ===== T (two rectangles with vertical gap) ===== -->
  <!-- Top bar -->
  <rect x="140" y="140" width="720" height="90" fill="#000"/>
  <!-- Stem (separate piece) -->
  <rect x="430" y="260" width="140" height="260" fill="#000"/>

  <!-- ===== O (octagon outer, inner rectangle, and small vertical split) ===== -->
  <!-- Outer chamfered octagon -->
  <!-- Octagon bounding approx: 240..760 x 560..900 with 80px chamfers -->
  <path d="
    M 320 560
    L 680 560
    L 760 640
    L 760 820
    L 680 900
    L 320 900
    L 240 820
    L 240 640
    Z" fill="#000"/>

  <!-- Inner rectangular void (hole) -->
  <!-- Creates the inner opening of the O -->
  <rect x="370" y="610" width="260" height="240" fill="#fff"/>

  <!-- Vertical split (small gap) through the O -->
  <!-- Cuts a narrow slot to separate left/right halves -->
  <rect x="495" y="560" width="10" height="340" fill="#fff"/>



  <defs>
    <!-- Honeycomb hex cell -->
    <g id="hexcell">
      <path id="hex"
        d="M 50,0 L 25,43.30127 L -25,43.30127 L -50,0 L -25,-43.30127 L 25,-43.30127 Z"
        fill="none" stroke="#000" stroke-width="6" stroke-linejoin="miter"/>
    </g>

    <!-- Honeycomb pattern -->
    <pattern id="honeycomb" patternUnits="userSpaceOnUse"
      x="0" y="0" width="150" height="86.60254" patternTransform="translate(0,0) scale(0.8)">
      <use href="#hex" x="0" y="43.30127"/>
      <use href="#hex" x="150" y="43.30127"/>
      <use href="#hex" x="75" y="0"/>
      <use href="#hex" x="225" y="0"/>
    </pattern>

    <!-- Beveled triangle clip + outline (slightly larger than previous) -->
    <clipPath id="triClip">
      <path d="M 545.777,160 L 454.223,160 L 120,840 L 170,915 L 830,915 L 880,840 Z"/>
    </clipPath>

    <path id="triOutline" d="M 545.777,160 L 454.223,160 L 120,840 L 170,915 L 830,915 L 880,840 Z" fill="none"/>
  </defs>

  <!-- Honeycomb clipped to triangle -->
  <rect x="0" y="0" width="1000" height="1000" fill="url(#honeycomb)" clip-path="url(#triClip)"/>

  <!-- Triangle border -->
  <use href="#triOutline" stroke="#000" stroke-width="14"/>

  <!-- ================= T / O =================
       - outline-only (no fills), stroke=14
       - T has a vertical gap (two rectangles, separated)
       - O outer is split into LEFT and RIGHT halves (true gap, not a line)
       - O inner bar has 'lips' top/bottom
  -->
</svg>
